<svg width="114" height="40" viewBox="0 0 114 40" fill="none" xmlns="http://www.w3.org/2000/svg">
<g clip-path="url(#clip0_72_581)">
<path d="M59.8962 10.7669C59.8962 12.1503 58.883 13.233 57.5884 13.233C56.2938 13.233 55.2806 12.1503 55.2806 10.7669C55.2806 9.38339 56.2938 8.30069 57.5884 8.30069C58.9393 8.36084 59.8962 9.44354 59.8962 10.7669ZM50.4961 15.6992C50.4961 15.9398 50.4961 16.3007 50.4961 16.3007C50.4961 16.3007 49.4267 14.7969 47.0626 14.7969C43.235 14.7969 40.2518 17.9247 40.2518 22.2556C40.2518 26.5263 43.235 29.7142 47.0626 29.7142C49.4267 29.7142 50.4961 28.1503 50.4961 28.1503V28.812C50.4961 29.1127 50.7213 29.3533 51.0027 29.3533H53.8734V15.1578C53.8734 15.1578 51.2842 15.1578 51.0027 15.1578C50.665 15.1578 50.4961 15.3984 50.4961 15.6992ZM50.4961 24.7217C49.9895 25.5638 48.9201 26.2857 47.6255 26.2857C45.374 26.2857 43.629 24.7819 43.629 22.1954C43.629 19.609 45.374 18.1052 47.6255 18.1052C48.8638 18.1052 49.9895 18.8872 50.4961 19.6691V24.7217ZM55.8997 15.1578H59.277V29.2932H55.8997V15.1578ZM106.39 14.7969C104.082 14.7969 102.956 16.3007 102.956 16.3007V8.36084H99.5789V29.2932C99.5789 29.2932 102.168 29.2932 102.45 29.2932C102.731 29.2932 102.956 29.0526 102.956 28.7518V28.0902C102.956 28.0902 104.026 29.6541 106.39 29.6541C110.217 29.6541 113.2 26.4661 113.2 22.1954C113.2 17.9247 110.217 14.7969 106.39 14.7969ZM105.827 26.2255C104.532 26.2255 103.519 25.5037 102.956 24.6616V19.609C103.463 18.827 104.588 18.045 105.827 18.045C108.078 18.045 109.823 19.5488 109.823 22.1353C109.823 24.7217 108.078 26.2255 105.827 26.2255ZM97.834 20.9323V29.3533H94.4567V21.3533C94.4567 19.0075 93.725 18.1052 91.8675 18.1052C90.8543 18.1052 89.7849 18.6466 89.1094 19.4887V29.3533H85.7322V15.1578H88.434C88.7154 15.1578 88.9406 15.3984 88.9406 15.6992V16.3007C89.9537 15.218 91.2483 14.7969 92.543 14.7969C94.0064 14.7969 95.2448 15.2781 96.2579 16.1804C97.3837 17.2029 97.834 18.5262 97.834 20.9323ZM77.5142 14.7969C75.2064 14.7969 74.0806 16.3007 74.0806 16.3007V8.36084H70.7034V29.2932C70.7034 29.2932 73.2926 29.2932 73.574 29.2932C73.8555 29.2932 74.0806 29.0526 74.0806 28.7518V28.0902C74.0806 28.0902 75.1501 29.6541 77.5142 29.6541C81.3417 29.6541 84.325 26.4661 84.325 22.1954C84.3813 17.9247 81.398 14.7969 77.5142 14.7969ZM76.9513 26.2255C75.6567 26.2255 74.6435 25.5037 74.0806 24.6616V19.609C74.5872 18.827 75.713 18.045 76.9513 18.045C79.2028 18.045 80.9477 19.5488 80.9477 22.1353C80.9477 24.7217 79.2028 26.2255 76.9513 26.2255ZM67.8327 14.7969C68.8459 14.7969 69.4088 14.9774 69.4088 14.9774V18.3458C69.4088 18.3458 66.5944 17.3232 64.8495 19.4887V29.3533H61.4722V15.1578C61.4722 15.1578 64.0614 15.1578 64.3429 15.1578C64.6243 15.1578 64.8495 15.3984 64.8495 15.6992V16.3007C65.4123 15.5187 66.7632 14.7969 67.8327 14.7969ZM32.7093 28.03C32.5404 27.5488 32.3715 27.0676 32.2027 26.6466C31.9212 25.9849 31.6398 25.3232 31.4146 24.7217H31.3584C28.938 19.0676 26.3488 13.3533 23.5907 7.69918L23.4781 7.45858C23.1967 6.91723 22.9152 6.31572 22.6338 5.71422C22.2961 5.05257 21.902 4.33076 21.3392 3.66911C20.2134 2.16535 18.5811 1.32324 16.8925 1.32324C15.1475 1.32324 13.5715 2.16535 12.3894 3.60896C11.8829 4.27061 11.4888 4.99242 11.0948 5.65407C10.8134 6.25557 10.532 6.85708 10.2505 7.39843L10.1379 7.63903C7.43614 13.2932 4.84691 19.0075 2.37026 24.6616L2.31397 24.7217C2.08882 25.3232 1.80738 25.9849 1.52594 26.6466C1.35708 27.0676 1.18822 27.4887 1.01936 28.03C0.569055 29.3533 0.400193 30.6766 0.569055 32.0601C0.963068 34.8872 2.76427 37.233 5.18464 38.3157C6.08524 38.7368 7.04213 38.9172 8.0553 38.9172C8.33674 38.9172 8.67447 38.8571 8.9559 38.8571C10.1379 38.6766 11.32 38.3157 12.502 37.5939C13.9655 36.7518 15.3164 35.4887 16.8925 33.6841C18.4685 35.4887 19.8757 36.7518 21.2829 37.5939C22.4649 38.3157 23.647 38.7368 24.829 38.8571C25.1104 38.9172 25.4482 38.9172 25.7296 38.9172C26.7428 38.9172 27.6997 38.7368 28.6003 38.3157C31.0769 37.233 32.7655 34.827 33.1596 32.0601C33.3284 30.7368 33.2158 29.4135 32.7093 28.03ZM16.8362 29.9548C14.9224 27.3684 13.6841 24.9623 13.29 22.9774C13.1212 22.1353 13.0649 21.3533 13.1775 20.6917C13.2338 20.0902 13.4589 19.5488 13.7403 19.1278C14.4158 18.1052 15.5416 17.4435 16.8362 17.4435C18.1308 17.4435 19.3128 18.045 19.932 19.1278C20.2134 19.609 20.4386 20.0902 20.4949 20.6917C20.6074 21.3533 20.5511 22.1353 20.3823 22.9774C19.9883 24.9623 18.7499 27.3684 16.8362 29.9548ZM30.9081 31.7593C30.6829 33.7443 29.4446 35.4285 27.6997 36.1503C26.8554 36.5112 25.9548 36.6315 24.9979 36.5112C24.0973 36.3909 23.2529 36.0902 22.2961 35.5488C21.0014 34.7669 19.7631 33.624 18.2996 31.8796C20.6074 28.812 22.0146 26.045 22.5775 23.5789C22.8026 22.436 22.8589 21.3533 22.7464 20.3909C22.5775 19.4285 22.2961 18.5864 21.7895 17.8044C20.72 16.1202 18.8625 15.1578 16.8362 15.1578C14.8098 15.1578 12.9523 16.1804 11.8829 17.8044C11.3763 18.5864 11.0948 19.4285 10.926 20.3909C10.7571 21.3533 10.8134 22.436 11.0948 23.5789C11.6014 26.045 13.0649 28.8721 15.3727 31.9398C13.9092 33.6841 12.6146 34.827 11.3763 35.609C10.4757 36.1503 9.57507 36.4511 8.67447 36.5714C7.71758 36.6917 6.81698 36.5112 6.02895 36.2105C4.28404 35.4285 3.04571 33.7443 2.82056 31.8195C2.70798 30.8571 2.76427 29.9548 3.15828 28.8721C3.27086 28.5112 3.43972 28.0902 3.60858 27.6691C3.83373 27.0676 4.11517 26.406 4.39661 25.8044L4.4529 25.7443C6.87326 20.1503 9.46249 14.436 12.2206 8.84204L12.3332 8.60144C12.6146 8.06008 12.896 7.45858 13.1775 6.85708C13.4589 6.25557 13.7966 5.71422 14.1906 5.17287C14.9224 4.27061 15.9356 3.78941 17.005 3.78941C18.0745 3.78941 19.0877 4.27061 19.8194 5.17287C20.2134 5.65407 20.5511 6.25557 20.8326 6.85708C21.114 7.39843 21.3955 7.99993 21.6769 8.60144L21.7895 8.84204C24.4913 14.436 27.0805 20.1503 29.5009 25.7443V25.8044C29.7823 26.406 30.0075 27.0676 30.2889 27.6691C30.4578 28.1503 30.6266 28.5112 30.7392 28.8721C30.9081 29.8345 31.0206 30.7368 30.9081 31.7593Z" fill="black"/>
</g>
<defs>
<clipPath id="clip0_72_581">
<rect width="112.8" height="40" fill="white" transform="translate(0.400024)"/>
</clipPath>
</defs>
</svg>
