<svg width="13" height="16" viewBox="0 0 13 16" fill="none" xmlns="http://www.w3.org/2000/svg">
<path d="M11.9766 12.3315L11.4141 14.6987C11.3438 15.0503 11.0625 15.2847 10.7109 15.2847C4.80469 15.2612 0 10.4565 0 4.55029C0 4.19873 0.210938 3.91748 0.5625 3.84717L2.92969 3.28467C3.25781 3.21436 3.60938 3.40186 3.75 3.70654L4.85156 6.26123C4.96875 6.56592 4.89844 6.91748 4.64062 7.10498L3.375 8.13623C4.17188 9.75342 5.48438 11.0659 7.125 11.8628L8.15625 10.5972C8.34375 10.3628 8.69531 10.269 9 10.3862L11.5547 11.4878C11.8594 11.6519 12.0469 12.0034 11.9766 12.3315Z" fill="#677788"/>
</svg>
