<svg width="51" height="50" viewBox="0 0 51 50" fill="none" xmlns="http://www.w3.org/2000/svg">
<g clip-path="url(#clip0_67_262)">
<path d="M49.625 25C49.625 24.7917 49.625 24.5833 49.625 24.375L46.6667 23.1667L49.375 21.3333C49 18.9583 48.3333 16.75 47.3333 14.6667L43.9583 14.7917L45.75 11.9167C44.5 9.95833 42.9583 8.25 41.2083 6.75L38.0417 8.29167L38.5417 4.79167C36.625 3.58333 34.5417 2.625 32.3333 1.95833L30.0417 4.70833L29.0417 1.25C27.9167 1.08333 26.7917 1 25.625 1C24.4583 1 23.3333 1.08333 22.2083 1.25L21.2083 4.70833L18.9167 1.95833C16.7083 2.625 14.5833 3.58333 12.7083 4.79167L13.2083 8.29167L10.0417 6.75C8.29167 8.25 6.75 10 5.5 11.9167L7.29167 14.7917L3.91667 14.6667C2.91667 16.75 2.20833 19 1.875 21.3333L4.58333 23.1667L1.625 24.375C1.625 24.5833 1.625 24.7917 1.625 25C1.625 27.2083 1.91667 29.375 2.5 31.4167L5.5 31.9583L3.41667 34.125C4.25 36.375 5.5 38.4583 7.04167 40.2917L9.875 39.5833L8.91667 42.2917C10.6667 43.9583 12.625 45.4167 14.8333 46.5L17.0417 44.7917L17.25 47.5417C19.5 48.375 21.875 48.875 24.375 49.0417L25.6667 46.625L26.9583 49.0417C29.4583 48.9167 31.8333 48.375 34.0833 47.5417L34.2917 44.7917L36.5 46.5C38.6667 45.4167 40.6667 43.9583 42.4167 42.2917L41.3333 39.5833L44.1667 40.2917C45.6667 38.4583 46.9167 36.375 47.8333 34.125L45.75 31.9583L48.75 31.4167C49.3333 29.375 49.625 27.25 49.625 25Z" stroke="#BDC5D1" stroke-width="3" stroke-miterlimit="10" stroke-linecap="round" stroke-linejoin="round"/>
<path opacity="0.5" d="M38.5417 23.375L35.625 23.1667L36.3333 20.3333C35.625 19.6667 34.8333 19.0417 33.9167 18.5833L31.4167 20.125L30.2917 17.4167C29.7917 17.3333 29.2917 17.3333 28.7917 17.3333C28.2917 17.3333 27.7917 17.375 27.2917 17.4167L26.1667 20.125L23.6667 18.5833C22.7917 19.0417 21.9583 19.6667 21.25 20.3333L21.9583 23.1667L19.0417 23.375C18.625 24.25 18.2917 25.2083 18.125 26.2083L20.375 28.125L18.125 30C18.2917 31 18.625 31.9583 19.0417 32.8333L21.9583 33.0417L21.25 35.875C21.9583 36.5417 22.75 37.1667 23.6667 37.625L26.1667 36.0833L27.2917 38.7917C27.7917 38.875 28.2917 38.875 28.7917 38.875C29.2917 38.875 29.7917 38.8333 30.2917 38.7917L31.4167 36.0833L33.9167 37.625C34.7917 37.1667 35.625 36.5417 36.3333 35.875L35.625 33.0417L38.5417 32.8333C38.9583 31.9583 39.2917 31 39.4583 30L37.2083 28.0833L39.4583 26.1667C39.2917 25.2083 39 24.25 38.5417 23.375Z" fill="#BDC5D1"/>
<path d="M35.25 20.1667L32.3333 19.9583L33 17.0833C32.2917 16.4167 31.5 15.7917 30.5833 15.3333L28.0833 16.875L27 14.1667C26.5 14.0833 26 14.0833 25.5 14.0833C25 14.0833 24.5 14.125 24 14.1667L22.875 16.875L20.375 15.3333C19.5 15.7917 18.6667 16.4167 17.9583 17.0833L18.6667 19.9167L15.75 20.125C15.3333 21 15 21.9583 14.8333 22.9583L17.0833 24.875L14.8333 26.7917C15 27.7917 15.3333 28.75 15.75 29.625L18.6667 29.8333L18 32.7083C18.7083 33.375 19.5 34 20.4167 34.4583L22.9167 32.9167L24.0417 35.625C24.5417 35.7083 25.0417 35.7083 25.5417 35.7083C26.0417 35.7083 26.5417 35.6667 27.0417 35.625L28.1667 32.9167L30.6667 34.4583C31.5417 34 32.375 33.375 33.0833 32.7083L32.375 29.875L35.2917 29.6667C35.7083 28.7917 36.0417 27.8333 36.2083 26.8333L33.9583 24.9167L36.2083 23C36 22 35.6667 21.0417 35.25 20.1667Z" fill="#377DFF"/>
<path d="M42.125 24.8333C42.125 24.875 42.125 24.9583 42.125 25" stroke="#377DFF" stroke-width="3" stroke-miterlimit="10" stroke-linecap="round" stroke-linejoin="round"/>
<path d="M41.7917 21.6667C41.875 22.0417 41.9583 22.4583 42 22.875" stroke="#377DFF" stroke-width="3" stroke-miterlimit="10" stroke-linecap="round" stroke-linejoin="round"/>
<path d="M25.5833 8.5C32.5 8.5 38.4583 12.75 40.875 18.8333" stroke="#377DFF" stroke-width="3" stroke-miterlimit="10" stroke-linecap="round" stroke-linejoin="round"/>
<path d="M9.58334 29.0833C9.25001 27.7917 9.08334 26.4167 9.08334 25" stroke="#377DFF" stroke-width="3" stroke-miterlimit="10" stroke-linecap="round" stroke-linejoin="round"/>
<path d="M25.5833 41.5C19.125 41.5 13.5417 37.7917 10.8333 32.375" stroke="#377DFF" stroke-width="3" stroke-miterlimit="10" stroke-linecap="round" stroke-linejoin="round"/>
<path d="M25.5 29.5833C28.1003 29.5833 30.2083 27.4753 30.2083 24.875C30.2083 22.2746 28.1003 20.1667 25.5 20.1667C22.8996 20.1667 20.7917 22.2746 20.7917 24.875C20.7917 27.4753 22.8996 29.5833 25.5 29.5833Z" stroke="white" stroke-width="3" stroke-miterlimit="10" stroke-linecap="round" stroke-linejoin="round"/>
<path d="M28.4167 10.7917L25.5833 8.5L28.7917 6.75" stroke="#377DFF" stroke-width="3" stroke-miterlimit="10" stroke-linecap="round" stroke-linejoin="round"/>
<path d="M22.5833 39.5L25.5833 41.5417L22.5833 43.5417" stroke="#377DFF" stroke-width="3" stroke-miterlimit="10" stroke-linecap="round" stroke-linejoin="round"/>
</g>
<defs>
<clipPath id="clip0_67_262">
<rect width="50" height="50" fill="white" transform="translate(0.5)"/>
</clipPath>
</defs>
</svg>
