<svg width="200" height="370" viewBox="0 0 200 370" fill="none" xmlns="http://www.w3.org/2000/svg">
<g clip-path="url(#clip0_72_415)">
<path d="M1.25392 2.50784C1.94644 2.50784 2.50784 1.94644 2.50784 1.25392C2.50784 0.561398 1.94644 0 1.25392 0C0.561398 0 0 0.561398 0 1.25392C0 1.94644 0.561398 2.50784 1.25392 2.50784Z" fill="#1E2022"/>
<path d="M29.4671 2.50784C30.1596 2.50784 30.721 1.94644 30.721 1.25392C30.721 0.561398 30.1596 0 29.4671 0C28.7745 0 28.2131 0.561398 28.2131 1.25392C28.2131 1.94644 28.7745 2.50784 29.4671 2.50784Z" fill="#1E2022"/>
<path d="M57.6802 2.50784C58.3728 2.50784 58.9342 1.94644 58.9342 1.25392C58.9342 0.561398 58.3728 0 57.6802 0C56.9877 0 56.4263 0.561398 56.4263 1.25392C56.4263 1.94644 56.9877 2.50784 57.6802 2.50784Z" fill="#1E2022"/>
<path d="M85.8934 2.50784C86.586 2.50784 87.1474 1.94644 87.1474 1.25392C87.1474 0.561398 86.586 0 85.8934 0C85.2009 0 84.6395 0.561398 84.6395 1.25392C84.6395 1.94644 85.2009 2.50784 85.8934 2.50784Z" fill="#1E2022"/>
<path d="M114.107 2.50784C114.799 2.50784 115.36 1.94644 115.36 1.25392C115.36 0.561398 114.799 0 114.107 0C113.414 0 112.853 0.561398 112.853 1.25392C112.853 1.94644 113.414 2.50784 114.107 2.50784Z" fill="#1E2022"/>
<path d="M142.32 2.50784C143.012 2.50784 143.574 1.94644 143.574 1.25392C143.574 0.561398 143.012 0 142.32 0C141.627 0 141.066 0.561398 141.066 1.25392C141.066 1.94644 141.627 2.50784 142.32 2.50784Z" fill="#1E2022"/>
<path d="M1.25392 30.721C1.94644 30.721 2.50784 30.1596 2.50784 29.4671C2.50784 28.7745 1.94644 28.2131 1.25392 28.2131C0.561398 28.2131 0 28.7745 0 29.4671C0 30.1596 0.561398 30.721 1.25392 30.721Z" fill="#1E2022"/>
<path d="M29.4671 30.721C30.1596 30.721 30.721 30.1596 30.721 29.4671C30.721 28.7745 30.1596 28.2131 29.4671 28.2131C28.7745 28.2131 28.2131 28.7745 28.2131 29.4671C28.2131 30.1596 28.7745 30.721 29.4671 30.721Z" fill="#1E2022"/>
<path d="M57.6802 30.721C58.3728 30.721 58.9342 30.1596 58.9342 29.4671C58.9342 28.7745 58.3728 28.2131 57.6802 28.2131C56.9877 28.2131 56.4263 28.7745 56.4263 29.4671C56.4263 30.1596 56.9877 30.721 57.6802 30.721Z" fill="#1E2022"/>
<path d="M85.8934 30.721C86.586 30.721 87.1474 30.1596 87.1474 29.4671C87.1474 28.7745 86.586 28.2131 85.8934 28.2131C85.2009 28.2131 84.6395 28.7745 84.6395 29.4671C84.6395 30.1596 85.2009 30.721 85.8934 30.721Z" fill="#1E2022"/>
<path d="M114.107 30.721C114.799 30.721 115.36 30.1596 115.36 29.4671C115.36 28.7745 114.799 28.2131 114.107 28.2131C113.414 28.2131 112.853 28.7745 112.853 29.4671C112.853 30.1596 113.414 30.721 114.107 30.721Z" fill="#1E2022"/>
<path d="M142.32 30.721C143.012 30.721 143.574 30.1596 143.574 29.4671C143.574 28.7745 143.012 28.2131 142.32 28.2131C141.627 28.2131 141.066 28.7745 141.066 29.4671C141.066 30.1596 141.627 30.721 142.32 30.721Z" fill="#1E2022"/>
<path d="M1.25392 58.9341C1.94644 58.9341 2.50784 58.3727 2.50784 57.6802C2.50784 56.9877 1.94644 56.4263 1.25392 56.4263C0.561398 56.4263 0 56.9877 0 57.6802C0 58.3727 0.561398 58.9341 1.25392 58.9341Z" fill="#1E2022"/>
<path d="M29.4671 58.9341C30.1596 58.9341 30.721 58.3727 30.721 57.6802C30.721 56.9877 30.1596 56.4263 29.4671 56.4263C28.7745 56.4263 28.2131 56.9877 28.2131 57.6802C28.2131 58.3727 28.7745 58.9341 29.4671 58.9341Z" fill="#1E2022"/>
<path d="M57.6802 58.9341C58.3728 58.9341 58.9342 58.3727 58.9342 57.6802C58.9342 56.9877 58.3728 56.4263 57.6802 56.4263C56.9877 56.4263 56.4263 56.9877 56.4263 57.6802C56.4263 58.3727 56.9877 58.9341 57.6802 58.9341Z" fill="#1E2022"/>
<path d="M85.8934 58.9341C86.586 58.9341 87.1474 58.3727 87.1474 57.6802C87.1474 56.9877 86.586 56.4263 85.8934 56.4263C85.2009 56.4263 84.6395 56.9877 84.6395 57.6802C84.6395 58.3727 85.2009 58.9341 85.8934 58.9341Z" fill="#1E2022"/>
<path d="M114.107 58.9341C114.799 58.9341 115.36 58.3727 115.36 57.6802C115.36 56.9877 114.799 56.4263 114.107 56.4263C113.414 56.4263 112.853 56.9877 112.853 57.6802C112.853 58.3727 113.414 58.9341 114.107 58.9341Z" fill="#1E2022"/>
<path d="M142.32 58.9341C143.012 58.9341 143.574 58.3727 143.574 57.6802C143.574 56.9877 143.012 56.4263 142.32 56.4263C141.627 56.4263 141.066 56.9877 141.066 57.6802C141.066 58.3727 141.627 58.9341 142.32 58.9341Z" fill="#1E2022"/>
<path d="M1.25392 87.1472C1.94644 87.1472 2.50784 86.5858 2.50784 85.8933C2.50784 85.2008 1.94644 84.6394 1.25392 84.6394C0.561398 84.6394 0 85.2008 0 85.8933C0 86.5858 0.561398 87.1472 1.25392 87.1472Z" fill="#1E2022"/>
<path d="M29.4671 87.1472C30.1596 87.1472 30.721 86.5858 30.721 85.8933C30.721 85.2008 30.1596 84.6394 29.4671 84.6394C28.7745 84.6394 28.2131 85.2008 28.2131 85.8933C28.2131 86.5858 28.7745 87.1472 29.4671 87.1472Z" fill="#1E2022"/>
<path d="M57.6802 87.1472C58.3728 87.1472 58.9342 86.5858 58.9342 85.8933C58.9342 85.2008 58.3728 84.6394 57.6802 84.6394C56.9877 84.6394 56.4263 85.2008 56.4263 85.8933C56.4263 86.5858 56.9877 87.1472 57.6802 87.1472Z" fill="#1E2022"/>
<path d="M85.8934 87.1472C86.586 87.1472 87.1474 86.5858 87.1474 85.8933C87.1474 85.2008 86.586 84.6394 85.8934 84.6394C85.2009 84.6394 84.6395 85.2008 84.6395 85.8933C84.6395 86.5858 85.2009 87.1472 85.8934 87.1472Z" fill="#1E2022"/>
<path d="M114.107 87.1472C114.799 87.1472 115.36 86.5858 115.36 85.8933C115.36 85.2008 114.799 84.6394 114.107 84.6394C113.414 84.6394 112.853 85.2008 112.853 85.8933C112.853 86.5858 113.414 87.1472 114.107 87.1472Z" fill="#1E2022"/>
<path d="M142.32 87.1472C143.012 87.1472 143.574 86.5858 143.574 85.8933C143.574 85.2008 143.012 84.6394 142.32 84.6394C141.627 84.6394 141.066 85.2008 141.066 85.8933C141.066 86.5858 141.627 87.1472 142.32 87.1472Z" fill="#1E2022"/>
<path d="M1.25392 115.36C1.94644 115.36 2.50784 114.799 2.50784 114.106C2.50784 113.414 1.94644 112.853 1.25392 112.853C0.561398 112.853 0 113.414 0 114.106C0 114.799 0.561398 115.36 1.25392 115.36Z" fill="#1E2022"/>
<path d="M29.4671 115.36C30.1596 115.36 30.721 114.799 30.721 114.106C30.721 113.414 30.1596 112.853 29.4671 112.853C28.7745 112.853 28.2131 113.414 28.2131 114.106C28.2131 114.799 28.7745 115.36 29.4671 115.36Z" fill="#1E2022"/>
<path d="M57.6802 115.36C58.3728 115.36 58.9342 114.799 58.9342 114.106C58.9342 113.414 58.3728 112.853 57.6802 112.853C56.9877 112.853 56.4263 113.414 56.4263 114.106C56.4263 114.799 56.9877 115.36 57.6802 115.36Z" fill="#1E2022"/>
<path d="M85.8934 115.36C86.586 115.36 87.1474 114.799 87.1474 114.106C87.1474 113.414 86.586 112.853 85.8934 112.853C85.2009 112.853 84.6395 113.414 84.6395 114.106C84.6395 114.799 85.2009 115.36 85.8934 115.36Z" fill="#1E2022"/>
<path d="M114.107 115.36C114.799 115.36 115.36 114.799 115.36 114.106C115.36 113.414 114.799 112.853 114.107 112.853C113.414 112.853 112.853 113.414 112.853 114.106C112.853 114.799 113.414 115.36 114.107 115.36Z" fill="#1E2022"/>
<path d="M142.32 115.36C143.012 115.36 143.574 114.799 143.574 114.106C143.574 113.414 143.012 112.853 142.32 112.853C141.627 112.853 141.066 113.414 141.066 114.106C141.066 114.799 141.627 115.36 142.32 115.36Z" fill="#1E2022"/>
<path d="M1.25392 143.574C1.94644 143.574 2.50784 143.012 2.50784 142.32C2.50784 141.627 1.94644 141.066 1.25392 141.066C0.561398 141.066 0 141.627 0 142.32C0 143.012 0.561398 143.574 1.25392 143.574Z" fill="#1E2022"/>
<path d="M29.4671 143.574C30.1596 143.574 30.721 143.012 30.721 142.32C30.721 141.627 30.1596 141.066 29.4671 141.066C28.7745 141.066 28.2131 141.627 28.2131 142.32C28.2131 143.012 28.7745 143.574 29.4671 143.574Z" fill="#1E2022"/>
<path d="M57.6802 143.574C58.3728 143.574 58.9342 143.012 58.9342 142.32C58.9342 141.627 58.3728 141.066 57.6802 141.066C56.9877 141.066 56.4263 141.627 56.4263 142.32C56.4263 143.012 56.9877 143.574 57.6802 143.574Z" fill="#1E2022"/>
<path d="M85.8934 143.574C86.586 143.574 87.1474 143.012 87.1474 142.32C87.1474 141.627 86.586 141.066 85.8934 141.066C85.2009 141.066 84.6395 141.627 84.6395 142.32C84.6395 143.012 85.2009 143.574 85.8934 143.574Z" fill="#1E2022"/>
<path d="M114.107 143.574C114.799 143.574 115.36 143.012 115.36 142.32C115.36 141.627 114.799 141.066 114.107 141.066C113.414 141.066 112.853 141.627 112.853 142.32C112.853 143.012 113.414 143.574 114.107 143.574Z" fill="#1E2022"/>
<path d="M142.32 143.574C143.012 143.574 143.574 143.012 143.574 142.32C143.574 141.627 143.012 141.066 142.32 141.066C141.627 141.066 141.066 141.627 141.066 142.32C141.066 143.012 141.627 143.574 142.32 143.574Z" fill="#1E2022"/>
<path d="M1.25392 171.787C1.94644 171.787 2.50784 171.225 2.50784 170.533C2.50784 169.84 1.94644 169.279 1.25392 169.279C0.561398 169.279 0 169.84 0 170.533C0 171.225 0.561398 171.787 1.25392 171.787Z" fill="#1E2022"/>
<path d="M29.4671 171.787C30.1596 171.787 30.721 171.225 30.721 170.533C30.721 169.84 30.1596 169.279 29.4671 169.279C28.7745 169.279 28.2131 169.84 28.2131 170.533C28.2131 171.225 28.7745 171.787 29.4671 171.787Z" fill="#1E2022"/>
<path d="M57.6802 171.787C58.3728 171.787 58.9342 171.225 58.9342 170.533C58.9342 169.84 58.3728 169.279 57.6802 169.279C56.9877 169.279 56.4263 169.84 56.4263 170.533C56.4263 171.225 56.9877 171.787 57.6802 171.787Z" fill="#1E2022"/>
<path d="M85.8934 171.787C86.586 171.787 87.1474 171.225 87.1474 170.533C87.1474 169.84 86.586 169.279 85.8934 169.279C85.2009 169.279 84.6395 169.84 84.6395 170.533C84.6395 171.225 85.2009 171.787 85.8934 171.787Z" fill="#1E2022"/>
<path d="M114.107 171.787C114.799 171.787 115.36 171.225 115.36 170.533C115.36 169.84 114.799 169.279 114.107 169.279C113.414 169.279 112.853 169.84 112.853 170.533C112.853 171.225 113.414 171.787 114.107 171.787Z" fill="#1E2022"/>
<path d="M142.32 171.787C143.012 171.787 143.574 171.225 143.574 170.533C143.574 169.84 143.012 169.279 142.32 169.279C141.627 169.279 141.066 169.84 141.066 170.533C141.066 171.225 141.627 171.787 142.32 171.787Z" fill="#1E2022"/>
<path d="M1.25392 200C1.94644 200 2.50784 199.439 2.50784 198.746C2.50784 198.054 1.94644 197.492 1.25392 197.492C0.561398 197.492 0 198.054 0 198.746C0 199.439 0.561398 200 1.25392 200Z" fill="#1E2022"/>
<path d="M29.4671 200C30.1596 200 30.721 199.439 30.721 198.746C30.721 198.054 30.1596 197.492 29.4671 197.492C28.7745 197.492 28.2131 198.054 28.2131 198.746C28.2131 199.439 28.7745 200 29.4671 200Z" fill="#1E2022"/>
<path d="M57.6802 200C58.3728 200 58.9342 199.439 58.9342 198.746C58.9342 198.054 58.3728 197.492 57.6802 197.492C56.9877 197.492 56.4263 198.054 56.4263 198.746C56.4263 199.439 56.9877 200 57.6802 200Z" fill="#1E2022"/>
<path d="M85.8934 200C86.586 200 87.1474 199.439 87.1474 198.746C87.1474 198.054 86.586 197.492 85.8934 197.492C85.2009 197.492 84.6395 198.054 84.6395 198.746C84.6395 199.439 85.2009 200 85.8934 200Z" fill="#1E2022"/>
<path d="M114.107 200C114.799 200 115.36 199.439 115.36 198.746C115.36 198.054 114.799 197.492 114.107 197.492C113.414 197.492 112.853 198.054 112.853 198.746C112.853 199.439 113.414 200 114.107 200Z" fill="#1E2022"/>
<path d="M142.32 200C143.012 200 143.574 199.439 143.574 198.746C143.574 198.054 143.012 197.492 142.32 197.492C141.627 197.492 141.066 198.054 141.066 198.746C141.066 199.439 141.627 200 142.32 200Z" fill="#1E2022"/>
<path d="M1.25392 228.213C1.94644 228.213 2.50784 227.652 2.50784 226.959C2.50784 226.267 1.94644 225.705 1.25392 225.705C0.561398 225.705 0 226.267 0 226.959C0 227.652 0.561398 228.213 1.25392 228.213Z" fill="#1E2022"/>
<path d="M29.4671 228.213C30.1596 228.213 30.721 227.652 30.721 226.959C30.721 226.267 30.1596 225.705 29.4671 225.705C28.7745 225.705 28.2131 226.267 28.2131 226.959C28.2131 227.652 28.7745 228.213 29.4671 228.213Z" fill="#1E2022"/>
<path d="M57.6802 228.213C58.3728 228.213 58.9342 227.652 58.9342 226.959C58.9342 226.267 58.3728 225.705 57.6802 225.705C56.9877 225.705 56.4263 226.267 56.4263 226.959C56.4263 227.652 56.9877 228.213 57.6802 228.213Z" fill="#1E2022"/>
<path d="M85.8934 228.213C86.586 228.213 87.1474 227.652 87.1474 226.959C87.1474 226.267 86.586 225.705 85.8934 225.705C85.2009 225.705 84.6395 226.267 84.6395 226.959C84.6395 227.652 85.2009 228.213 85.8934 228.213Z" fill="#1E2022"/>
<path d="M114.107 228.213C114.799 228.213 115.36 227.652 115.36 226.959C115.36 226.267 114.799 225.705 114.107 225.705C113.414 225.705 112.853 226.267 112.853 226.959C112.853 227.652 113.414 228.213 114.107 228.213Z" fill="#1E2022"/>
<path d="M142.32 228.213C143.012 228.213 143.574 227.652 143.574 226.959C143.574 226.267 143.012 225.705 142.32 225.705C141.627 225.705 141.066 226.267 141.066 226.959C141.066 227.652 141.627 228.213 142.32 228.213Z" fill="#1E2022"/>
<path d="M1.25392 256.426C1.94644 256.426 2.50784 255.865 2.50784 255.172C2.50784 254.48 1.94644 253.918 1.25392 253.918C0.561398 253.918 0 254.48 0 255.172C0 255.865 0.561398 256.426 1.25392 256.426Z" fill="#1E2022"/>
<path d="M29.4671 256.426C30.1596 256.426 30.721 255.865 30.721 255.172C30.721 254.48 30.1596 253.918 29.4671 253.918C28.7745 253.918 28.2131 254.48 28.2131 255.172C28.2131 255.865 28.7745 256.426 29.4671 256.426Z" fill="#1E2022"/>
<path d="M57.6802 256.426C58.3728 256.426 58.9342 255.865 58.9342 255.172C58.9342 254.48 58.3728 253.918 57.6802 253.918C56.9877 253.918 56.4263 254.48 56.4263 255.172C56.4263 255.865 56.9877 256.426 57.6802 256.426Z" fill="#1E2022"/>
<path d="M85.8934 256.426C86.586 256.426 87.1474 255.865 87.1474 255.172C87.1474 254.48 86.586 253.918 85.8934 253.918C85.2009 253.918 84.6395 254.48 84.6395 255.172C84.6395 255.865 85.2009 256.426 85.8934 256.426Z" fill="#1E2022"/>
<path d="M114.107 256.426C114.799 256.426 115.36 255.865 115.36 255.172C115.36 254.48 114.799 253.918 114.107 253.918C113.414 253.918 112.853 254.48 112.853 255.172C112.853 255.865 113.414 256.426 114.107 256.426Z" fill="#1E2022"/>
<path d="M142.32 256.426C143.012 256.426 143.574 255.865 143.574 255.172C143.574 254.48 143.012 253.918 142.32 253.918C141.627 253.918 141.066 254.48 141.066 255.172C141.066 255.865 141.627 256.426 142.32 256.426Z" fill="#1E2022"/>
<path d="M1.25392 284.639C1.94644 284.639 2.50784 284.078 2.50784 283.386C2.50784 282.693 1.94644 282.132 1.25392 282.132C0.561398 282.132 0 282.693 0 283.386C0 284.078 0.561398 284.639 1.25392 284.639Z" fill="#1E2022"/>
<path d="M29.4671 284.639C30.1596 284.639 30.721 284.078 30.721 283.386C30.721 282.693 30.1596 282.132 29.4671 282.132C28.7745 282.132 28.2131 282.693 28.2131 283.386C28.2131 284.078 28.7745 284.639 29.4671 284.639Z" fill="#1E2022"/>
<path d="M57.6802 284.639C58.3728 284.639 58.9342 284.078 58.9342 283.386C58.9342 282.693 58.3728 282.132 57.6802 282.132C56.9877 282.132 56.4263 282.693 56.4263 283.386C56.4263 284.078 56.9877 284.639 57.6802 284.639Z" fill="#1E2022"/>
<path d="M85.8934 284.639C86.586 284.639 87.1474 284.078 87.1474 283.386C87.1474 282.693 86.586 282.132 85.8934 282.132C85.2009 282.132 84.6395 282.693 84.6395 283.386C84.6395 284.078 85.2009 284.639 85.8934 284.639Z" fill="#1E2022"/>
<path d="M114.107 284.639C114.799 284.639 115.36 284.078 115.36 283.386C115.36 282.693 114.799 282.132 114.107 282.132C113.414 282.132 112.853 282.693 112.853 283.386C112.853 284.078 113.414 284.639 114.107 284.639Z" fill="#1E2022"/>
<path d="M142.32 284.639C143.012 284.639 143.574 284.078 143.574 283.386C143.574 282.693 143.012 282.132 142.32 282.132C141.627 282.132 141.066 282.693 141.066 283.386C141.066 284.078 141.627 284.639 142.32 284.639Z" fill="#1E2022"/>
<path d="M170.533 2.50784C171.225 2.50784 171.787 1.94644 171.787 1.25392C171.787 0.561398 171.225 0 170.533 0C169.84 0 169.279 0.561398 169.279 1.25392C169.279 1.94644 169.84 2.50784 170.533 2.50784Z" fill="#1E2022"/>
<path d="M198.746 2.50784C199.439 2.50784 200 1.94644 200 1.25392C200 0.561398 199.439 0 198.746 0C198.054 0 197.492 0.561398 197.492 1.25392C197.492 1.94644 198.054 2.50784 198.746 2.50784Z" fill="#1E2022"/>
<path d="M170.533 30.721C171.225 30.721 171.787 30.1596 171.787 29.4671C171.787 28.7745 171.225 28.2131 170.533 28.2131C169.84 28.2131 169.279 28.7745 169.279 29.4671C169.279 30.1596 169.84 30.721 170.533 30.721Z" fill="#1E2022"/>
<path d="M198.746 30.721C199.439 30.721 200 30.1596 200 29.4671C200 28.7745 199.439 28.2131 198.746 28.2131C198.054 28.2131 197.492 28.7745 197.492 29.4671C197.492 30.1596 198.054 30.721 198.746 30.721Z" fill="#1E2022"/>
<path d="M170.533 58.9341C171.225 58.9341 171.787 58.3727 171.787 57.6802C171.787 56.9877 171.225 56.4263 170.533 56.4263C169.84 56.4263 169.279 56.9877 169.279 57.6802C169.279 58.3727 169.84 58.9341 170.533 58.9341Z" fill="#1E2022"/>
<path d="M198.746 58.9341C199.439 58.9341 200 58.3727 200 57.6802C200 56.9877 199.439 56.4263 198.746 56.4263C198.054 56.4263 197.492 56.9877 197.492 57.6802C197.492 58.3727 198.054 58.9341 198.746 58.9341Z" fill="#1E2022"/>
<path d="M170.533 87.1472C171.225 87.1472 171.787 86.5858 171.787 85.8933C171.787 85.2008 171.225 84.6394 170.533 84.6394C169.84 84.6394 169.279 85.2008 169.279 85.8933C169.279 86.5858 169.84 87.1472 170.533 87.1472Z" fill="#1E2022"/>
<path d="M198.746 87.1472C199.439 87.1472 200 86.5858 200 85.8933C200 85.2008 199.439 84.6394 198.746 84.6394C198.054 84.6394 197.492 85.2008 197.492 85.8933C197.492 86.5858 198.054 87.1472 198.746 87.1472Z" fill="#1E2022"/>
<path d="M170.533 115.36C171.225 115.36 171.787 114.799 171.787 114.106C171.787 113.414 171.225 112.853 170.533 112.853C169.84 112.853 169.279 113.414 169.279 114.106C169.279 114.799 169.84 115.36 170.533 115.36Z" fill="#1E2022"/>
<path d="M198.746 115.36C199.439 115.36 200 114.799 200 114.106C200 113.414 199.439 112.853 198.746 112.853C198.054 112.853 197.492 113.414 197.492 114.106C197.492 114.799 198.054 115.36 198.746 115.36Z" fill="#1E2022"/>
<path d="M170.533 143.574C171.225 143.574 171.787 143.012 171.787 142.32C171.787 141.627 171.225 141.066 170.533 141.066C169.84 141.066 169.279 141.627 169.279 142.32C169.279 143.012 169.84 143.574 170.533 143.574Z" fill="#1E2022"/>
<path d="M198.746 143.574C199.439 143.574 200 143.012 200 142.32C200 141.627 199.439 141.066 198.746 141.066C198.054 141.066 197.492 141.627 197.492 142.32C197.492 143.012 198.054 143.574 198.746 143.574Z" fill="#1E2022"/>
<path d="M170.533 171.787C171.225 171.787 171.787 171.225 171.787 170.533C171.787 169.84 171.225 169.279 170.533 169.279C169.84 169.279 169.279 169.84 169.279 170.533C169.279 171.225 169.84 171.787 170.533 171.787Z" fill="#1E2022"/>
<path d="M198.746 171.787C199.439 171.787 200 171.225 200 170.533C200 169.84 199.439 169.279 198.746 169.279C198.054 169.279 197.492 169.84 197.492 170.533C197.492 171.225 198.054 171.787 198.746 171.787Z" fill="#1E2022"/>
<path d="M170.533 200C171.225 200 171.787 199.439 171.787 198.746C171.787 198.054 171.225 197.492 170.533 197.492C169.84 197.492 169.279 198.054 169.279 198.746C169.279 199.439 169.84 200 170.533 200Z" fill="#1E2022"/>
<path d="M198.746 200C199.439 200 200 199.439 200 198.746C200 198.054 199.439 197.492 198.746 197.492C198.054 197.492 197.492 198.054 197.492 198.746C197.492 199.439 198.054 200 198.746 200Z" fill="#1E2022"/>
<path d="M170.533 228.213C171.225 228.213 171.787 227.652 171.787 226.959C171.787 226.267 171.225 225.705 170.533 225.705C169.84 225.705 169.279 226.267 169.279 226.959C169.279 227.652 169.84 228.213 170.533 228.213Z" fill="#1E2022"/>
<path d="M198.746 228.213C199.439 228.213 200 227.652 200 226.959C200 226.267 199.439 225.705 198.746 225.705C198.054 225.705 197.492 226.267 197.492 226.959C197.492 227.652 198.054 228.213 198.746 228.213Z" fill="#1E2022"/>
<path d="M170.533 256.426C171.225 256.426 171.787 255.865 171.787 255.172C171.787 254.48 171.225 253.918 170.533 253.918C169.84 253.918 169.279 254.48 169.279 255.172C169.279 255.865 169.84 256.426 170.533 256.426Z" fill="#1E2022"/>
<path d="M198.746 256.426C199.439 256.426 200 255.865 200 255.172C200 254.48 199.439 253.918 198.746 253.918C198.054 253.918 197.492 254.48 197.492 255.172C197.492 255.865 198.054 256.426 198.746 256.426Z" fill="#1E2022"/>
<path d="M170.533 284.639C171.225 284.639 171.787 284.078 171.787 283.386C171.787 282.693 171.225 282.132 170.533 282.132C169.84 282.132 169.279 282.693 169.279 283.386C169.279 284.078 169.84 284.639 170.533 284.639Z" fill="#1E2022"/>
<path d="M198.746 284.639C199.439 284.639 200 284.078 200 283.386C200 282.693 199.439 282.132 198.746 282.132C198.054 282.132 197.492 282.693 197.492 283.386C197.492 284.078 198.054 284.639 198.746 284.639Z" fill="#1E2022"/>
<path d="M1.25392 312.853C1.94644 312.853 2.50784 312.291 2.50784 311.599C2.50784 310.906 1.94644 310.345 1.25392 310.345C0.561398 310.345 0 310.906 0 311.599C0 312.291 0.561398 312.853 1.25392 312.853Z" fill="#1E2022"/>
<path d="M29.4671 312.853C30.1596 312.853 30.721 312.291 30.721 311.599C30.721 310.906 30.1596 310.345 29.4671 310.345C28.7745 310.345 28.2131 310.906 28.2131 311.599C28.2131 312.291 28.7745 312.853 29.4671 312.853Z" fill="#1E2022"/>
<path d="M57.6802 312.853C58.3728 312.853 58.9342 312.291 58.9342 311.599C58.9342 310.906 58.3728 310.345 57.6802 310.345C56.9877 310.345 56.4263 310.906 56.4263 311.599C56.4263 312.291 56.9877 312.853 57.6802 312.853Z" fill="#1E2022"/>
<path d="M85.8934 312.853C86.586 312.853 87.1474 312.291 87.1474 311.599C87.1474 310.906 86.586 310.345 85.8934 310.345C85.2009 310.345 84.6395 310.906 84.6395 311.599C84.6395 312.291 85.2009 312.853 85.8934 312.853Z" fill="#1E2022"/>
<path d="M114.107 312.853C114.799 312.853 115.36 312.291 115.36 311.599C115.36 310.906 114.799 310.345 114.107 310.345C113.414 310.345 112.853 310.906 112.853 311.599C112.853 312.291 113.414 312.853 114.107 312.853Z" fill="#1E2022"/>
<path d="M142.32 312.853C143.012 312.853 143.574 312.291 143.574 311.599C143.574 310.906 143.012 310.345 142.32 310.345C141.627 310.345 141.066 310.906 141.066 311.599C141.066 312.291 141.627 312.853 142.32 312.853Z" fill="#1E2022"/>
<path d="M1.25392 341.066C1.94644 341.066 2.50784 340.505 2.50784 339.812C2.50784 339.12 1.94644 338.558 1.25392 338.558C0.561398 338.558 0 339.12 0 339.812C0 340.505 0.561398 341.066 1.25392 341.066Z" fill="#1E2022"/>
<path d="M29.4671 341.066C30.1596 341.066 30.721 340.505 30.721 339.812C30.721 339.12 30.1596 338.558 29.4671 338.558C28.7745 338.558 28.2131 339.12 28.2131 339.812C28.2131 340.505 28.7745 341.066 29.4671 341.066Z" fill="#1E2022"/>
<path d="M57.6802 341.066C58.3728 341.066 58.9342 340.505 58.9342 339.812C58.9342 339.12 58.3728 338.558 57.6802 338.558C56.9877 338.558 56.4263 339.12 56.4263 339.812C56.4263 340.505 56.9877 341.066 57.6802 341.066Z" fill="#1E2022"/>
<path d="M85.8934 341.066C86.586 341.066 87.1474 340.505 87.1474 339.812C87.1474 339.12 86.586 338.558 85.8934 338.558C85.2009 338.558 84.6395 339.12 84.6395 339.812C84.6395 340.505 85.2009 341.066 85.8934 341.066Z" fill="#1E2022"/>
<path d="M114.107 341.066C114.799 341.066 115.36 340.505 115.36 339.812C115.36 339.12 114.799 338.558 114.107 338.558C113.414 338.558 112.853 339.12 112.853 339.812C112.853 340.505 113.414 341.066 114.107 341.066Z" fill="#1E2022"/>
<path d="M142.32 341.066C143.012 341.066 143.574 340.505 143.574 339.812C143.574 339.12 143.012 338.558 142.32 338.558C141.627 338.558 141.066 339.12 141.066 339.812C141.066 340.505 141.627 341.066 142.32 341.066Z" fill="#1E2022"/>
<path d="M1.25392 369.279C1.94644 369.279 2.50784 368.718 2.50784 368.025C2.50784 367.333 1.94644 366.771 1.25392 366.771C0.561398 366.771 0 367.333 0 368.025C0 368.718 0.561398 369.279 1.25392 369.279Z" fill="#1E2022"/>
<path d="M29.4671 369.279C30.1596 369.279 30.721 368.718 30.721 368.025C30.721 367.333 30.1596 366.771 29.4671 366.771C28.7745 366.771 28.2131 367.333 28.2131 368.025C28.2131 368.718 28.7745 369.279 29.4671 369.279Z" fill="#1E2022"/>
<path d="M57.6802 369.279C58.3728 369.279 58.9342 368.718 58.9342 368.025C58.9342 367.333 58.3728 366.771 57.6802 366.771C56.9877 366.771 56.4263 367.333 56.4263 368.025C56.4263 368.718 56.9877 369.279 57.6802 369.279Z" fill="#1E2022"/>
<path d="M85.8934 369.279C86.586 369.279 87.1474 368.718 87.1474 368.025C87.1474 367.333 86.586 366.771 85.8934 366.771C85.2009 366.771 84.6395 367.333 84.6395 368.025C84.6395 368.718 85.2009 369.279 85.8934 369.279Z" fill="#1E2022"/>
<path d="M114.107 369.279C114.799 369.279 115.36 368.718 115.36 368.025C115.36 367.333 114.799 366.771 114.107 366.771C113.414 366.771 112.853 367.333 112.853 368.025C112.853 368.718 113.414 369.279 114.107 369.279Z" fill="#1E2022"/>
<path d="M142.32 369.279C143.012 369.279 143.574 368.718 143.574 368.025C143.574 367.333 143.012 366.771 142.32 366.771C141.627 366.771 141.066 367.333 141.066 368.025C141.066 368.718 141.627 369.279 142.32 369.279Z" fill="#1E2022"/>
<path d="M170.533 312.853C171.225 312.853 171.787 312.291 171.787 311.599C171.787 310.906 171.225 310.345 170.533 310.345C169.84 310.345 169.279 310.906 169.279 311.599C169.279 312.291 169.84 312.853 170.533 312.853Z" fill="#1E2022"/>
<path d="M198.746 312.853C199.439 312.853 200 312.291 200 311.599C200 310.906 199.439 310.345 198.746 310.345C198.054 310.345 197.492 310.906 197.492 311.599C197.492 312.291 198.054 312.853 198.746 312.853Z" fill="#1E2022"/>
<path d="M170.533 341.066C171.225 341.066 171.787 340.505 171.787 339.812C171.787 339.12 171.225 338.558 170.533 338.558C169.84 338.558 169.279 339.12 169.279 339.812C169.279 340.505 169.84 341.066 170.533 341.066Z" fill="#1E2022"/>
<path d="M198.746 341.066C199.439 341.066 200 340.505 200 339.812C200 339.12 199.439 338.558 198.746 338.558C198.054 338.558 197.492 339.12 197.492 339.812C197.492 340.505 198.054 341.066 198.746 341.066Z" fill="#1E2022"/>
<path d="M170.533 369.279C171.225 369.279 171.787 368.718 171.787 368.025C171.787 367.333 171.225 366.771 170.533 366.771C169.84 366.771 169.279 367.333 169.279 368.025C169.279 368.718 169.84 369.279 170.533 369.279Z" fill="#1E2022"/>
<path d="M198.746 369.279C199.439 369.279 200 368.718 200 368.025C200 367.333 199.439 366.771 198.746 366.771C198.054 366.771 197.492 367.333 197.492 368.025C197.492 368.718 198.054 369.279 198.746 369.279Z" fill="#1E2022"/>
</g>
<defs>
<clipPath id="clip0_72_415">
<rect width="200" height="369.279" fill="white"/>
</clipPath>
</defs>
</svg>
