<svg width="155" height="48" viewBox="0 0 155 48" fill="none" xmlns="http://www.w3.org/2000/svg">
<g clip-path="url(#clip0_83_294)">
<path d="M58.9 39.15V10.95H76.8V16.15H65.6V22.25H74V27.45H65.6V39.15H58.9Z" fill="#377DFF"/>
<path d="M86.2 16.75V20.95C87.8 18.05 89.9 16.55 92.5 16.55V23.55H90.9C89.4 23.55 88.2 23.95 87.4 24.65C86.6 25.45 86.2 26.75 86.2 28.55V39.15H79.5V16.75H86.2Z" fill="#377DFF"/>
<path d="M95.9 36.25C93.7 34.15 92.6 31.35 92.6 27.85C92.6 24.35 93.7 21.65 95.9 19.55C98.1 17.45 100.8 16.45 104 16.45C107.2 16.45 109.9 17.45 112.1 19.55C114.3 21.65 115.4 24.35 115.4 27.85C115.4 31.35 114.3 34.05 112.1 36.25C109.9 38.45 107.2 39.45 104 39.45C100.8 39.45 98.1 38.35 95.9 36.25ZM107.3 32.15C108.2 31.15 108.6 29.75 108.6 27.95C108.6 26.15 108.1 24.75 107.2 23.75C106.3 22.75 105.2 22.35 103.9 22.35C102.6 22.35 101.6 22.85 100.7 23.75C99.8 24.75 99.3 26.05 99.3 27.95C99.3 29.85 99.8 31.15 100.7 32.15C101.6 33.15 102.7 33.55 104 33.55C105.3 33.55 106.4 33.05 107.3 32.15Z" fill="#377DFF"/>
<path d="M124.5 16.75V20.05C125.9 17.65 128.1 16.55 131.1 16.55C133.6 16.55 135.6 17.45 137.2 19.15C138.8 20.85 139.5 23.15 139.5 26.15V39.25H132.8V26.95C132.8 25.55 132.4 24.35 131.7 23.55C131 22.75 129.9 22.35 128.6 22.35C127.3 22.35 126.3 22.75 125.5 23.55C124.8 24.35 124.4 25.45 124.4 26.95V39.15H117.7V16.75H124.5Z" fill="#377DFF"/>
<path d="M152.5 33.35H154.9V39.15H151.5C149 39.15 147.1 38.55 145.8 37.45C144.5 36.35 143.8 34.45 143.8 31.75V22.45H141.8V16.75H143.8V11.25H150.5V16.75H154.9V22.45H150.5V31.75C150.5 32.75 151.2 33.35 152.5 33.35Z" fill="#377DFF"/>
<path opacity="0.65" d="M23 42.05C13.1 42.05 5 34.05 5 24.05C5 14.15 13 6.05002 23 6.05002H34.3C38 6.05002 40.9 9.05002 40.9 12.65V24.05C41 33.95 32.9 42.05 23 42.05Z" fill="#3F7DE0"/>
<path opacity="0.5" d="M28 36.95C18.1 36.95 10 28.95 10 18.95C10 9.05001 18 0.950012 28 0.950012H39.3C43 1.05001 46 4.05001 46 7.65001V19.05C46 28.95 38 36.95 28 36.95Z" fill="#00DFFC"/>
<path opacity="0.7" d="M18 47.05C8 47.05 0 39.05 0 29.05C0 19.15 8 11.05 18 11.05H29.3C33 11.05 35.9 14.05 35.9 17.65V29.05C35.9 39.05 27.9 47.05 18 47.05Z" fill="#3F7DE0"/>
<path d="M17.4 35.05V19.35H27.6V22.25H21.2V25.65H26V28.55H21.2V35.05H17.4Z" fill="white"/>
</g>
<defs>
<clipPath id="clip0_83_294">
<rect width="154.9" height="46.1" fill="white" transform="translate(0 0.950012)"/>
</clipPath>
</defs>
</svg>
