<svg width="50" height="50" viewBox="0 0 50 50" fill="none" xmlns="http://www.w3.org/2000/svg">
<g clip-path="url(#clip0_67_296)">
<path opacity="0.5" d="M34.25 49.7917C40.5092 49.7917 45.5833 44.7176 45.5833 38.4583C45.5833 32.1991 40.5092 27.125 34.25 27.125C27.9908 27.125 22.9167 32.1991 22.9167 38.4583C22.9167 44.7176 27.9908 49.7917 34.25 49.7917Z" fill="#BDC5D1"/>
<path d="M30.0833 46.25C36.3426 46.25 41.4167 41.1759 41.4167 34.9167C41.4167 28.6575 36.3426 23.5833 30.0833 23.5833C23.8241 23.5833 18.75 28.6575 18.75 34.9167C18.75 41.1759 23.8241 46.25 30.0833 46.25Z" fill="#377DFF"/>
<path d="M31.8333 34.5417C32.375 34.7083 32.7917 35 33.1667 35.375C33.5417 35.7917 33.7917 36.25 33.9167 36.75C34.0417 37.25 34 37.8333 33.8333 38.375C33.625 38.9583 33.25 39.4583 32.7083 39.7917C32.1667 40.125 31.5833 40.3333 30.9583 40.3333V41.625C30.9583 41.75 30.9167 41.875 30.8333 41.9167C30.75 41.9583 30.6667 42.0417 30.5417 42.0417H29.6667C29.5417 42.0417 29.4167 42 29.375 41.9167C29.3333 41.8333 29.25 41.75 29.25 41.625V40.3333C28.375 40.3333 27.5833 40.0833 26.9167 39.5417C26.8333 39.4583 26.7917 39.3333 26.75 39.2083C26.75 39.0833 26.7917 38.9583 26.875 38.875L27.7917 37.9583C27.875 37.9167 27.9583 37.875 28.0417 37.8333C28.125 37.8333 28.25 37.8333 28.3333 37.9167C28.5833 38.0833 28.9167 38.1667 29.25 38.1667H31.0417C31.25 38.1667 31.4583 38.0833 31.5833 37.9167C31.75 37.75 31.8333 37.5833 31.8333 37.3333C31.8333 37.1667 31.7917 37 31.6667 36.875C31.5417 36.75 31.4167 36.625 31.25 36.5833L28.4583 35.8333C27.8333 35.6667 27.3333 35.3333 26.9167 34.875C26.5 34.4167 26.25 33.875 26.1667 33.25C26.125 32.6667 26.25 32.125 26.5 31.625C26.75 31.125 27.125 30.75 27.5833 30.4167C28.0417 30.125 28.5833 29.9583 29.1667 29.9583H29.2083V28.6667C29.2083 28.5417 29.25 28.4167 29.3333 28.375C29.4167 28.3333 29.5 28.25 29.625 28.25H30.5C30.625 28.25 30.75 28.2917 30.7917 28.375C30.8333 28.4583 30.9167 28.5417 30.9167 28.6667V29.9583C31.7917 29.9583 32.5417 30.2083 33.25 30.75C33.375 30.8333 33.4167 30.9583 33.4583 31.0833C33.4583 31.2083 33.4167 31.3333 33.3333 31.4167L32.4167 32.375C32.3333 32.4167 32.25 32.4583 32.1667 32.5C32.0833 32.5 31.9583 32.5 31.875 32.4583C31.625 32.25 31.2917 32.1667 30.9583 32.1667H29.1667C28.9583 32.1667 28.75 32.25 28.625 32.4167C28.4583 32.5833 28.375 32.75 28.375 33C28.375 33.1667 28.4167 33.3333 28.5417 33.4583C28.6667 33.5833 28.7917 33.7083 28.9583 33.75L31.8333 34.5417Z" fill="white"/>
<path d="M16 34.0417H2.95833C1.83333 34.0417 0.875 33.125 0.875 31.9583V3.12499C0.875 1.99999 1.79167 1.04166 2.95833 1.04166H47.125C48.25 1.04166 49.2083 1.95832 49.2083 3.12499V31.9583C49.2083 33.0833 48.2917 34.0417 47.125 34.0417" stroke="#BDC5D1" stroke-width="3" stroke-miterlimit="10" stroke-linecap="round" stroke-linejoin="round"/>
<path opacity="0.5" d="M14.7083 6.54168C15.4217 6.54168 16 5.96338 16 5.25001C16 4.53664 15.4217 3.95834 14.7083 3.95834C13.995 3.95834 13.4167 4.53664 13.4167 5.25001C13.4167 5.96338 13.995 6.54168 14.7083 6.54168Z" stroke="#BDC5D1" stroke-width="3" stroke-miterlimit="10" stroke-linecap="round" stroke-linejoin="round"/>
<path opacity="0.5" d="M9.83333 6.54168C10.5467 6.54168 11.125 5.96338 11.125 5.25001C11.125 4.53664 10.5467 3.95834 9.83333 3.95834C9.11996 3.95834 8.54166 4.53664 8.54166 5.25001C8.54166 5.96338 9.11996 6.54168 9.83333 6.54168Z" stroke="#BDC5D1" stroke-width="3" stroke-miterlimit="10" stroke-linecap="round" stroke-linejoin="round"/>
<path d="M5 6.54168C5.71337 6.54168 6.29167 5.96338 6.29167 5.25001C6.29167 4.53664 5.71337 3.95834 5 3.95834C4.28663 3.95834 3.70834 4.53664 3.70834 5.25001C3.70834 5.96338 4.28663 6.54168 5 6.54168Z" stroke="#377DFF" stroke-width="3" stroke-linecap="round" stroke-linejoin="round"/>
<path d="M6.125 26.5833L18.0417 20.0417L20.25 22.4583L29.6667 16.7083L32.7083 20.2083L46 9" stroke="#377DFF" stroke-width="3" stroke-linecap="round" stroke-linejoin="round"/>
<path d="M42.2083 9.83333L46 9L44.75 12.5833" stroke="#377DFF" stroke-width="3" stroke-linecap="round" stroke-linejoin="round"/>
<path opacity="0.5" d="M34.7917 14.5V7.20834H37.2083V12.3333" stroke="#BDC5D1" stroke-width="3" stroke-linecap="round" stroke-linejoin="round"/>
<path opacity="0.5" d="M25.3333 16.25V9.83334H27.7083V14.5" stroke="#BDC5D1" stroke-width="3" stroke-linecap="round" stroke-linejoin="round"/>
<path opacity="0.5" d="M20.5833 18.9167V15.125H22.9583V17.5833" stroke="#BDC5D1" stroke-width="3" stroke-linecap="round" stroke-linejoin="round"/>
<path opacity="0.5" d="M15.8333 18.0417V13.3333H18.2083V16.7083" stroke="#BDC5D1" stroke-width="3" stroke-linecap="round" stroke-linejoin="round"/>
<path opacity="0.5" d="M11.0833 20.6667V17.3333H13.4583V19.3333" stroke="#BDC5D1" stroke-width="3" stroke-linecap="round" stroke-linejoin="round"/>
<path opacity="0.5" d="M30.0833 14V11.5833H32.4583V15.7917" stroke="#BDC5D1" stroke-width="3" stroke-linecap="round" stroke-linejoin="round"/>
</g>
<defs>
<clipPath id="clip0_67_296">
<rect width="50" height="50" fill="white"/>
</clipPath>
</defs>
</svg>
