<svg width="50" height="50" viewBox="0 0 50 50" fill="none" xmlns="http://www.w3.org/2000/svg">
<path d="M22.0417 17.7085C20.9167 17.7085 19.875 18.2085 19.2083 19.0418V11.9585H4.20834C2.12501 11.9585 0.416672 13.6668 0.416672 15.7502V30.7502H7.37501C6.62501 30.0835 6.125 29.0835 6.125 28.0002C6.125 25.9585 7.75 24.3335 9.79167 24.3335C11.8333 24.3335 13.4583 25.9585 13.4583 28.0002C13.4583 29.0835 13 30.0835 12.2083 30.7502H19.1667V23.6668C19.8333 24.5002 20.8333 25.0002 22 25.0002C24 25.0002 25.625 23.3752 25.625 21.3752C25.7083 19.3335 24.0833 17.7085 22.0417 17.7085Z" stroke="#BDC5D1" stroke-width="3" stroke-miterlimit="10" stroke-linecap="round" stroke-linejoin="round"/>
<path d="M7.41667 30.75H0.416672V45.75C0.416672 47.8333 2.12501 49.5417 4.20834 49.5417H19.2083V42.5833C18.5417 43.3333 17.5417 43.8333 16.4583 43.8333C14.4167 43.8333 12.7917 42.2083 12.7917 40.1667C12.7917 38.125 14.4167 36.5 16.4583 36.5C17.5417 36.5 18.5417 36.9583 19.2083 37.75V30.75H12.2917" stroke="#BDC5D1" stroke-width="3" stroke-miterlimit="10" stroke-linecap="round" stroke-linejoin="round"/>
<path d="M19.25 42.6251V49.5834H34.25C36.3333 49.5834 38.0417 47.8751 38.0417 45.7917V30.7917H31.0833C31.8333 31.4584 32.3333 32.4584 32.3333 33.5417C32.3333 35.5834 30.7083 37.2084 28.6667 37.2084C26.625 37.2084 25 35.5834 25 33.5417C25 32.4584 25.4583 31.4584 26.25 30.7917H19.25V37.7501" stroke="#BDC5D1" stroke-width="3" stroke-miterlimit="10" stroke-linecap="round" stroke-linejoin="round"/>
<path opacity="0.5" d="M44.125 6.70833C43.5417 4.70833 41.4167 3.54166 39.4167 4.12499L25 8.24999L26.9167 14.9583C27.3333 14.0417 28.1667 13.3333 29.2083 13C31.1667 12.4167 33.2083 13.5417 33.75 15.5C34.3333 17.4583 33.2083 19.5 31.25 20.0417C30.2083 20.3333 29.125 20.1667 28.2917 19.625L30.2083 26.3333L36.75 24.4583C36.2917 25.2917 36.125 26.2917 36.4167 27.2917C37 29.25 39.0417 30.4167 41.0417 29.8333C43 29.25 44.1667 27.2083 43.5833 25.2083C43.2917 24.2083 42.625 23.4167 41.7917 22.9583L48.2917 21.0833L44.125 6.70833Z" fill="#BDC5D1"/>
<path d="M45.8333 2.75007C45.25 0.750073 43.125 -0.416594 41.125 0.16674L26.7083 4.33341L28.625 11.0417C29.0417 10.1251 29.875 9.41674 30.9167 9.08341C32.875 8.50007 34.9167 9.62507 35.4583 11.5834C36.0417 13.5417 34.9167 15.5834 32.9583 16.1251C31.9167 16.4167 30.8333 16.2501 30 15.7084L31.9167 22.4167L38.4583 20.5417C38 21.3751 37.8333 22.3751 38.125 23.3751C38.7083 25.3334 40.75 26.5001 42.75 25.9167C44.7083 25.3334 45.875 23.2917 45.2917 21.2917C45 20.2917 44.3333 19.5001 43.5 19.0417L50 17.1667L45.8333 2.75007Z" fill="#377DFF"/>
</svg>
