<svg width="114" height="40" viewBox="0 0 114 40" fill="none" xmlns="http://www.w3.org/2000/svg">
<g clip-path="url(#clip0_72_560)">
<path d="M36.6239 28.7519L38.0311 25.2631C39.5509 26.4661 41.5772 27.1278 43.6036 27.1278C45.0671 27.1278 46.0239 26.5263 46.0239 25.624C46.0239 23.0376 37.1868 25.0827 37.1305 18.5864C37.1305 15.2782 39.8323 12.812 43.7162 12.812C46.0239 12.812 48.3317 13.4135 49.9641 14.797L48.6695 18.3458C47.1497 17.3233 45.2922 16.6015 43.5473 16.6015C42.3653 16.6015 41.5209 17.203 41.5209 17.9849C41.5209 20.5113 50.4144 19.1278 50.5269 25.3233C50.5269 28.6917 47.8814 31.0376 44.0539 31.0376C41.1269 30.9774 38.594 30.2556 36.6239 28.7519Z" fill="black"/>
<path d="M90.7163 24C89.9845 25.3233 88.6899 26.2255 87.1701 26.2255C84.9186 26.2255 83.1174 24.3007 83.1174 21.8947C83.1174 19.4887 84.9186 17.5639 87.1701 17.5639C88.6899 17.5639 89.9845 18.4661 90.7163 19.7895L94.6001 17.5037C93.1366 14.7368 90.3785 12.812 87.1701 12.812C82.442 12.812 78.6707 16.9022 78.6707 21.8947C78.6707 26.8872 82.4983 30.9774 87.1701 30.9774C90.3785 30.9774 93.1366 29.1128 94.6001 26.2857L90.7163 24Z" fill="black"/>
<path d="M57.2252 5.23315H52.3844V30.6768H57.2252V5.23315Z" fill="black"/>
<path d="M96.4574 5.23315V30.6166H101.354V23.0377L107.096 30.6166H113.344L106.026 21.5941L112.781 13.1129H106.871L101.354 20.1504V5.23315H96.4574Z" fill="black"/>
<path d="M71.691 24.0602C70.9593 25.3234 69.5521 26.2256 67.9197 26.2256C65.6682 26.2256 63.867 24.3008 63.867 21.8948C63.867 19.4888 65.6682 17.564 67.9197 17.564C69.5521 17.564 71.0155 18.5264 71.691 19.7895V24.0602ZM71.691 13.1129V15.158C70.903 13.7144 68.9329 12.752 66.8503 12.752C62.5724 12.752 59.1952 16.782 59.1952 21.8347C59.1952 26.8873 62.5724 30.9775 66.8503 30.9775C68.9329 30.9775 70.903 29.955 71.691 28.5715V30.6166H76.5317V13.1129H71.691Z" fill="black"/>
<path d="M6.56646 24.0603C6.56646 25.8046 5.21556 27.2483 3.58323 27.2483C1.9509 27.2483 0.543716 25.8046 0.543716 24.0603C0.543716 22.3159 1.89461 20.8723 3.52694 20.8723H6.51017L6.56646 24.0603Z" fill="black"/>
<path d="M8.08621 24.0603C8.08621 22.3159 9.43711 20.8723 11.0694 20.8723C12.7018 20.8723 14.0527 22.2558 14.0527 24.0603V32.0603C14.0527 33.8046 12.7018 35.2483 11.0694 35.2483C9.43711 35.2483 8.08621 33.8046 8.08621 32.0603V24.0603Z" fill="black"/>
<path d="M11.0694 11.188C9.43711 11.188 8.08621 9.74434 8.08621 7.99998C8.08621 6.25562 9.43711 4.81201 11.0694 4.81201C12.7018 4.81201 14.0527 6.25562 14.0527 7.99998V11.188H11.0694Z" fill="black"/>
<path d="M11.0695 12.812C12.7018 12.812 14.0527 14.2556 14.0527 16C14.0527 17.7443 12.7018 19.188 11.0695 19.188H3.52696C1.89462 19.188 0.543716 17.7443 0.543716 16C0.543716 14.2556 1.89462 12.812 3.52696 12.812H11.0695Z" fill="black"/>
<path d="M23.0587 16C23.0587 14.2556 24.4096 12.812 26.0419 12.812C27.6743 12.812 29.0252 14.2556 29.0252 16C29.0252 17.7443 27.6743 19.188 26.0419 19.188H23.0587V16Z" fill="black"/>
<path d="M21.5952 16.0001C21.5952 17.7444 20.2443 19.188 18.6119 19.188C16.9796 19.188 15.6287 17.7444 15.6287 16.0001V7.93992C15.6287 6.19556 16.9796 4.75195 18.6119 4.75195C20.2443 4.75195 21.5952 6.19556 21.5952 7.93992V16.0001Z" fill="black"/>
<path d="M18.6119 28.8123C20.2443 28.8123 21.5952 30.2559 21.5952 32.0002C21.5952 33.7446 20.2443 35.1882 18.6119 35.1882C16.9796 35.1882 15.6287 33.7446 15.6287 32.0002V28.8123H18.6119Z" fill="black"/>
<path d="M18.6119 27.2483C16.9796 27.2483 15.6287 25.8046 15.6287 24.0603C15.6287 22.3159 16.9796 20.8723 18.6119 20.8723H26.1545C27.7868 20.8723 29.1377 22.3159 29.1377 24.0603C29.1377 25.8046 27.7868 27.2483 26.1545 27.2483H18.6119Z" fill="black"/>
</g>
<defs>
<clipPath id="clip0_72_560">
<rect width="112.8" height="40" fill="white" transform="translate(0.600006)"/>
</clipPath>
</defs>
</svg>
