<svg width="113" height="40" viewBox="0 0 113 40" fill="none" xmlns="http://www.w3.org/2000/svg">
<g clip-path="url(#clip0_72_583)">
<path d="M36.2239 28.7519L37.6311 25.2631C39.1509 26.4661 41.1772 27.1278 43.2036 27.1278C44.6671 27.1278 45.6239 26.5263 45.6239 25.624C45.6239 23.0376 36.7868 25.0827 36.7305 18.5864C36.7305 15.2782 39.4323 12.812 43.3162 12.812C45.6239 12.812 47.9317 13.4135 49.5641 14.797L48.2695 18.3458C46.7497 17.3233 44.8922 16.6015 43.1473 16.6015C41.9653 16.6015 41.1209 17.203 41.1209 17.9849C41.1209 20.5113 50.0144 19.1278 50.1269 25.3233C50.1269 28.6917 47.4814 31.0376 43.6539 31.0376C40.7269 30.9774 38.194 30.2556 36.2239 28.7519Z" fill="black"/>
<path d="M90.3163 24C89.5845 25.3233 88.2899 26.2255 86.7701 26.2255C84.5186 26.2255 82.7174 24.3007 82.7174 21.8947C82.7174 19.4887 84.5186 17.5639 86.7701 17.5639C88.2899 17.5639 89.5845 18.4661 90.3163 19.7895L94.2001 17.5037C92.7366 14.7368 89.9785 12.812 86.7701 12.812C82.042 12.812 78.2707 16.9022 78.2707 21.8947C78.2707 26.8872 82.0983 30.9774 86.7701 30.9774C89.9785 30.9774 92.7366 29.1128 94.2001 26.2857L90.3163 24Z" fill="black"/>
<path d="M56.8252 5.23315H51.9844V30.6768H56.8252V5.23315Z" fill="black"/>
<path d="M96.0574 5.23315V30.6166H100.954V23.0377L106.696 30.6166H112.944L105.626 21.5941L112.381 13.1129H106.471L100.954 20.1504V5.23315H96.0574Z" fill="black"/>
<path d="M71.291 24.0602C70.5593 25.3234 69.1521 26.2256 67.5197 26.2256C65.2682 26.2256 63.467 24.3008 63.467 21.8948C63.467 19.4888 65.2682 17.564 67.5197 17.564C69.1521 17.564 70.6155 18.5264 71.291 19.7895V24.0602ZM71.291 13.1129V15.158C70.503 13.7144 68.5329 12.752 66.4503 12.752C62.1724 12.752 58.7952 16.782 58.7952 21.8347C58.7952 26.8873 62.1724 30.9775 66.4503 30.9775C68.5329 30.9775 70.503 29.955 71.291 28.5715V30.6166H76.1317V13.1129H71.291Z" fill="black"/>
<path d="M6.16638 24.0603C6.16638 25.8046 4.81548 27.2483 3.18315 27.2483C1.55081 27.2483 0.143631 25.8046 0.143631 24.0603C0.143631 22.3159 1.49453 20.8723 3.12686 20.8723H6.11009L6.16638 24.0603Z" fill="black"/>
<path d="M7.68622 24.0603C7.68622 22.3159 9.03712 20.8723 10.6695 20.8723C12.3018 20.8723 13.6527 22.2558 13.6527 24.0603V32.0603C13.6527 33.8046 12.3018 35.2483 10.6695 35.2483C9.03712 35.2483 7.68622 33.8046 7.68622 32.0603V24.0603Z" fill="black"/>
<path d="M10.6695 11.188C9.03712 11.188 7.68622 9.74434 7.68622 7.99998C7.68622 6.25562 9.03712 4.81201 10.6695 4.81201C12.3018 4.81201 13.6527 6.25562 13.6527 7.99998V11.188H10.6695Z" fill="black"/>
<path d="M10.6694 12.812C12.3017 12.812 13.6526 14.2556 13.6526 16C13.6526 17.7443 12.3017 19.188 10.6694 19.188H3.12687C1.49453 19.188 0.143631 17.7443 0.143631 16C0.143631 14.2556 1.49453 12.812 3.12687 12.812H10.6694Z" fill="black"/>
<path d="M22.6587 16C22.6587 14.2556 24.0096 12.812 25.6419 12.812C27.2742 12.812 28.6251 14.2556 28.6251 16C28.6251 17.7443 27.2742 19.188 25.6419 19.188H22.6587V16Z" fill="black"/>
<path d="M21.1952 16.0001C21.1952 17.7444 19.8443 19.188 18.2119 19.188C16.5796 19.188 15.2287 17.7444 15.2287 16.0001V7.93992C15.2287 6.19556 16.5796 4.75195 18.2119 4.75195C19.8443 4.75195 21.1952 6.19556 21.1952 7.93992V16.0001Z" fill="black"/>
<path d="M18.2119 28.8123C19.8443 28.8123 21.1952 30.2559 21.1952 32.0002C21.1952 33.7446 19.8443 35.1882 18.2119 35.1882C16.5796 35.1882 15.2287 33.7446 15.2287 32.0002V28.8123H18.2119Z" fill="black"/>
<path d="M18.2119 27.2483C16.5796 27.2483 15.2287 25.8046 15.2287 24.0603C15.2287 22.3159 16.5796 20.8723 18.2119 20.8723H25.7545C27.3868 20.8723 28.7377 22.3159 28.7377 24.0603C28.7377 25.8046 27.3868 27.2483 25.7545 27.2483H18.2119Z" fill="black"/>
</g>
<defs>
<clipPath id="clip0_72_583">
<rect width="112.8" height="40" fill="white" transform="translate(0.200012)"/>
</clipPath>
</defs>
</svg>
