<svg width="114" height="40" viewBox="0 0 114 40" fill="none" xmlns="http://www.w3.org/2000/svg">
<g clip-path="url(#clip0_72_553)">
<path d="M18.5305 8.06024V21.955C18.5305 26.5866 16.6167 28.5114 12.1138 28.5114C7.61076 28.5114 5.69699 26.5866 5.69699 21.955V7.45874H1.36286C0.96885 7.45874 0.799988 7.63919 0.799988 8.06024V22.1354C0.799988 29.8948 5.41555 32.6016 12.1138 32.6016C18.812 32.6016 23.4275 29.8948 23.4275 22.1354V7.45874H19.0934C18.7557 7.45874 18.5305 7.69934 18.5305 8.06024Z" fill="#000203"/>
<path d="M81.4035 11.4888C81.7412 11.4888 81.9101 11.3685 82.0226 11.0678L83.261 7.75949C83.3172 7.57904 83.261 7.45874 83.0921 7.45874H65.643C64.0106 7.45874 63.3915 8.00009 63.3915 9.2031V30.7369C63.3915 31.7595 63.8418 32.1805 65.1364 32.1805H81.4035C81.7412 32.1805 81.9101 32.0602 82.0226 31.7595L83.261 28.4512C83.3172 28.2708 83.261 28.1505 83.0921 28.1505H68.1759V23.7595C68.1759 22.2557 68.9639 21.5339 71.0466 21.5339H77.5196C77.8574 21.5339 78.0262 21.4136 78.1388 21.1129L79.3208 17.9249C79.3771 17.7445 79.3208 17.6242 79.152 17.6242H68.1196V11.4888H81.4035Z" fill="#000203"/>
<path d="M46.1114 28.2105H37.5557V23.6993C37.5557 22.1955 38.3437 21.4737 40.4264 21.4737H46.1114C48.8132 21.4737 49.6012 22.6165 49.6012 24.8421C49.6012 27.188 48.8132 28.2105 46.1114 28.2105ZM37.5557 11.4286H45.2108C47.7437 11.4286 48.4755 12.4511 48.4755 14.6165C48.4755 16.7218 47.7437 17.8045 45.2108 17.8045H37.5557V11.4286ZM50.6707 19.188C52.5844 18.1053 53.3725 16.1203 53.3725 13.7744C53.3725 8.30075 49.2072 7.5188 44.8731 7.5188H35.0228C33.3904 7.5188 32.7713 8.06015 32.7713 9.26316V30.797C32.7713 31.8196 33.2216 32.2406 34.5162 32.2406H46.618C51.1773 32.2406 54.4419 30.3158 54.4419 25.3835C54.4419 22.4361 53.2599 19.9098 50.6707 19.188Z" fill="#000203"/>
<path d="M104.481 18.9475H96.4323V11.4287H104.481C107.465 11.4287 108.14 12.6918 108.14 15.158C108.196 17.7445 107.521 18.9475 104.481 18.9475ZM113.544 31.7595L108.365 22.2557C110.954 21.5339 113.037 19.7294 113.037 15.0978C113.037 9.0828 109.547 7.45874 103.806 7.45874H93.8994C92.267 7.45874 91.6479 8.00009 91.6479 9.2031V31.579C91.6479 32.0001 91.8167 32.1805 92.2107 32.1805H96.4323V24.9625C96.4323 23.4587 97.2203 22.7369 99.3029 22.7369H103.581L108.253 31.7595C108.422 32.0001 108.534 32.1805 108.872 32.1805H113.262C113.656 32.2407 113.656 31.9399 113.544 31.7595Z" fill="#000203"/>
</g>
<defs>
<clipPath id="clip0_72_553">
<rect width="112.8" height="40" fill="white" transform="translate(0.799988)"/>
</clipPath>
</defs>
</svg>
