<svg width="12" height="12" viewBox="0 0 12 12" fill="none" xmlns="http://www.w3.org/2000/svg">
<path d="M6 0C9.30469 0 12 2.69531 12 6C12 9.32812 9.30469 12 6 12C2.67188 12 0 9.32812 0 6C0 2.69531 2.67188 0 6 0ZM6 3C5.0625 3 4.3125 3.77344 4.3125 4.6875C4.3125 5.625 5.0625 6.375 6 6.375C6.91406 6.375 7.6875 5.625 7.6875 4.6875C7.6875 3.77344 6.91406 3 6 3ZM6 10.5C7.21875 10.5 8.34375 10.0078 9.16406 9.1875C8.78906 8.20312 7.85156 7.5 6.75 7.5H5.25C4.125 7.5 3.1875 8.20312 2.8125 9.1875C3.63281 10.0078 4.75781 10.5 6 10.5Z" fill="#677788"/>
</svg>
