<svg width="113" height="40" viewBox="0 0 113 40" fill="none" xmlns="http://www.w3.org/2000/svg">
<g clip-path="url(#clip0_72_551)">
<path d="M64.393 4.752C64.6744 2.52644 66.3631 0.481323 68.502 0.120421C70.5846 -0.360782 72.8924 0.721924 73.9056 2.76704C74.7499 4.2708 74.6936 6.13546 74.6374 7.87982C77.3954 7.45877 80.2661 8.24072 82.405 10.1054C82.405 8.42117 82.3487 6.73696 82.4613 5.05275C82.6865 2.70689 84.3751 0.601624 86.5703 0.180571C88.7092 -0.300632 91.1296 0.782075 92.1991 2.88734C93.0434 4.45125 92.9308 6.31591 92.8745 8.06027C94.3943 7.87982 96.0266 8.24072 97.2087 9.32343C98.3907 10.346 98.8973 11.9099 99.4039 13.4137C99.8542 12.1505 100.248 10.8272 101.149 9.80463C102.669 8.06027 105.258 7.57907 107.228 8.60162C108.804 9.38358 110.042 11.1279 110.099 13.0528C110.211 14.5565 109.592 16.0001 109.029 17.3836C106.665 23.6392 104.301 29.955 101.937 36.2106C101.487 37.4738 100.699 38.6167 99.629 39.3385C97.8841 40.5415 95.52 40.3009 93.8877 39.158C92.4805 38.1956 91.6362 36.3911 91.8051 34.5866C91.9739 32.9625 92.2554 31.3385 92.5368 29.7144C91.7488 31.5791 90.0039 33.0227 88.0338 33.0828C85.9511 33.3234 83.9811 32.0001 82.9679 30.0753C80.2098 32.9625 75.7631 33.9249 72.217 32.1806C70.8098 32.9024 69.1212 33.143 67.6014 32.5415C66.6445 32.1806 65.9128 31.4588 65.2373 30.6768C61.8601 32.8422 57.4133 33.6843 53.4732 32.2407C51.672 31.5791 50.096 30.3761 48.8013 28.8723C46.381 31.7595 42.6097 32.9625 39.0073 32.9625C35.0672 32.9625 31.2396 30.6768 29.2696 27.0076C28.7067 28.9926 27.8624 31.0377 26.1737 32.1204C24.0911 33.4437 21.1079 33.2031 19.3629 31.3986C18.8001 30.8573 18.4061 30.1355 18.012 29.4137C17.5055 30.4964 16.7737 31.5791 15.7605 32.1806C13.6216 33.4437 10.6947 33.2031 8.94974 31.3385C8.04914 30.4362 7.48626 29.2332 7.09225 27.97C5.79764 24.0001 4.44673 20.0302 3.15212 16.0603C2.58924 14.3761 2.25152 12.3911 3.09583 10.7069C4.44673 7.87982 8.16171 6.91741 10.6384 8.66177C11.7641 9.38358 12.4959 10.6467 12.8899 11.97C13.2839 10.8272 13.8468 9.62418 14.8599 8.90238C16.8863 7.27832 19.9821 7.45877 21.7833 9.38358C22.4588 10.1054 22.8528 11.0076 23.1905 11.97C23.6408 10.4061 24.654 8.90238 26.1175 8.24072C28.3127 7.15802 31.127 7.93997 32.5905 9.98508C35.0109 8.12042 38.1067 7.39862 41.0337 8.00012C43.9043 8.54147 46.4936 10.4663 48.1822 12.9926C49.8145 10.5264 52.2349 8.60162 55.0493 8.06027C58.3139 7.27832 61.8601 8.30087 64.393 10.5866C64.393 8.60162 64.2241 6.67681 64.393 4.752ZM67.2637 5.89486C67.2637 12.752 67.2637 19.6693 67.2637 26.5264C67.2637 27.3084 67.32 28.0903 67.7703 28.752C68.4457 29.7746 69.9092 29.955 70.8661 29.2934C71.429 28.9325 71.5978 28.2708 71.8792 27.6693C73.9056 30.6768 78.296 30.3761 80.7164 28.0302C84.3188 24.6618 84.6003 18.4663 82.1236 14.3159C80.9416 12.2708 78.8026 10.8873 76.5511 10.8272C74.8625 10.7069 73.1739 11.4287 71.823 12.5114C71.823 10.1655 71.8792 7.75952 71.7667 5.41365C71.7104 3.97005 70.4158 2.82719 69.1212 3.18809C67.8828 3.36854 67.2074 4.6317 67.2637 5.89486ZM86.7392 3.30839C85.726 3.78959 85.2757 5.05275 85.332 6.13546C85.332 13.1129 85.332 20.0903 85.332 27.0678C85.2757 28.3911 86.1763 29.7746 87.4709 29.8347C88.8218 30.0152 90.0039 28.752 90.0039 27.3685C90.0601 20.5114 90.0039 13.6543 90.0601 6.79711C90.0601 5.89486 90.1164 4.81215 89.4973 4.0302C88.8781 3.12794 87.6961 2.88734 86.7392 3.30839ZM5.57248 12.4512C5.34733 13.6543 5.91021 14.8573 6.24794 16.0001C7.54255 19.8497 8.78088 23.6392 10.0755 27.4888C10.4695 28.6919 11.3701 29.8347 12.6647 29.8347C13.9593 30.0152 15.1414 29.1129 15.5354 27.7896C16.436 25.0227 17.224 22.1956 18.0683 19.3685C18.8564 22.0152 19.6444 24.6016 20.4324 27.2482C20.7138 28.1505 21.1079 29.0528 21.8959 29.534C22.9091 30.0753 24.2037 29.955 25.048 29.1731C25.6672 28.5716 25.9486 27.7294 26.23 26.9475C27.5809 22.8573 28.9318 18.767 30.2827 14.737C30.6205 13.8347 30.733 12.752 30.1702 11.9099C29.2133 10.4061 26.6803 10.6467 26.1175 12.4512C25.1043 15.8197 24.2037 19.2482 23.1905 22.6167C22.1773 19.2482 21.2767 15.8798 20.2073 12.5715C19.757 11.0076 17.7869 10.4663 16.6049 11.4287C16.042 11.8497 15.8168 12.5715 15.5917 13.2934C14.6911 16.4212 13.7905 19.549 12.8336 22.6768C11.8767 19.4287 10.9761 16.1204 10.0192 12.8122C9.68148 10.4061 6.19165 10.2257 5.57248 12.4512ZM33.2097 13.4738C30.2827 16.7219 29.8324 22.1355 32.1402 25.9249C33.266 27.7896 35.0672 29.0528 37.0372 29.5941C39.5702 30.2558 42.272 29.7746 44.5798 28.5114C45.4241 28.0302 46.3247 27.4287 46.775 26.4663C47.4504 25.0828 46.0433 23.2182 44.6361 23.6994C43.5666 24.1204 42.6097 24.9024 41.5402 25.2633C39.9079 25.8648 37.9378 25.6843 36.5869 24.4212C35.9115 23.8197 35.6301 22.9174 35.4049 22.0753C38.8384 22.0152 42.272 22.1355 45.7055 22.0152C46.6061 22.0152 47.3379 21.2332 47.3379 20.2708C47.563 15.7595 44.1858 11.3685 39.9642 10.8873C37.4875 10.5866 34.8983 11.549 33.2097 13.4738ZM52.2912 12.6918C49.4205 15.0979 48.2948 19.4888 49.3079 23.2182C49.8708 25.6242 51.4469 27.7896 53.5858 28.8723C56.4565 30.3761 59.9463 30.0152 62.7607 28.5114C63.6613 27.97 64.6744 27.3685 65.0685 26.2858C65.6313 24.9024 64.2241 23.158 62.817 23.6392C61.8601 24.0001 61.0157 24.6618 60.0589 25.0828C58.4265 25.8648 56.3439 25.6843 54.8804 24.4813C54.1487 23.8798 53.8109 22.9174 53.5858 22.0152C57.0193 21.955 60.3966 22.0753 63.8301 21.955C64.7307 22.0152 65.5188 21.1731 65.5188 20.2106C65.7439 16.0603 62.817 11.9099 59.0457 11.0076C56.7379 10.5264 54.1487 11.0678 52.2912 12.6918ZM91.8051 12.5114C91.5236 13.2934 91.8051 14.1355 92.0302 14.8573C93.7188 19.2482 95.3512 23.6392 96.9835 28.0302C96.3644 29.7144 95.6889 31.4588 95.0135 33.143C94.732 33.8648 94.5069 34.7069 94.7883 35.4888C95.1823 36.6317 96.5332 37.1129 97.6027 36.8723C98.5596 36.5716 99.0662 35.549 99.4039 34.5866C101.937 27.8497 104.47 21.1731 107.003 14.4362C107.453 13.4137 107.228 12.0302 106.215 11.4287C105.033 10.5866 103.288 11.1881 102.781 12.6317C101.599 15.7595 100.473 18.9475 99.2913 22.0753C98.2781 19.1279 97.265 16.1806 96.2518 13.1731C95.9703 12.3911 95.5763 11.549 94.7883 11.2482C93.7188 10.7069 92.2554 11.3084 91.8051 12.5114ZM36.6995 16.0603C36.0241 16.7821 35.7989 17.7445 35.5738 18.6467C38.0504 18.6467 40.5271 18.6467 43.06 18.6467C42.8349 17.7445 42.5534 16.7821 41.9343 16.0603C40.5834 14.4964 38.0504 14.4964 36.6995 16.0603ZM54.8804 16.0001C54.205 16.7219 53.9235 17.6843 53.6984 18.5866C56.175 18.5866 58.6517 18.5866 61.1846 18.5866C60.9595 17.6843 60.7343 16.7219 60.1152 16.0603C58.7642 14.4964 56.175 14.4362 54.8804 16.0001ZM74.6936 15.4588C73.8493 15.6392 73.1176 16.3009 72.6673 17.0828C71.5415 19.1279 71.6541 21.955 72.8924 23.94C73.9056 25.564 76.326 25.8648 77.6769 24.4813C79.4781 22.4964 79.5907 19.1279 78.1272 16.9024C77.3392 15.6994 75.932 15.0979 74.6936 15.4588Z" fill="black"/>
</g>
<defs>
<clipPath id="clip0_72_551">
<rect width="112.8" height="40" fill="white"/>
</clipPath>
</defs>
</svg>
